<svg width="14" height="14" viewBox="0 0 14 14" fill="none" xmlns="http://www.w3.org/2000/svg">
<path fill-rule="evenodd" clip-rule="evenodd" d="M1.75 0.250023C1.35218 0.250023 0.970644 0.408058 0.68934 0.689363C0.408035 0.970667 0.25 1.3522 0.25 1.75002V12.25C0.25 12.6478 0.408035 13.0294 0.68934 13.3107C0.970644 13.592 1.35218 13.75 1.75 13.75H12.25C12.6478 13.75 13.0294 13.592 13.3107 13.3107C13.592 13.0294 13.75 12.6478 13.75 12.25V1.75002C13.75 1.3522 13.592 0.970667 13.3107 0.689363C13.0294 0.408058 12.6478 0.250023 12.25 0.250023H1.75ZM10.7125 5.34702C10.8532 5.20639 10.9323 5.01562 10.9324 4.81666C10.9325 4.61771 10.8535 4.42688 10.7129 4.28615C10.5722 4.14542 10.3815 4.06632 10.1825 4.06625C9.98356 4.06618 9.79273 4.14514 9.652 4.28577L5.9395 7.99827L4.34875 6.40752C4.27912 6.33784 4.19644 6.28256 4.10544 6.24482C4.01444 6.20709 3.9169 6.18766 3.81839 6.18762C3.61944 6.18755 3.42861 6.26652 3.28787 6.40715C3.14714 6.54778 3.06804 6.73855 3.06797 6.93751C3.0679 7.13646 3.14687 7.32729 3.2875 7.46802L5.356 9.53652C5.43261 9.61317 5.52358 9.67398 5.6237 9.71546C5.72382 9.75694 5.83113 9.7783 5.9395 9.7783C6.04787 9.7783 6.15518 9.75694 6.2553 9.71546C6.35542 9.67398 6.44639 9.61317 6.523 9.53652L10.7125 5.34702Z" fill="#2965F1"/>
</svg>
